<?xml version="1.0" encoding="UTF-8" standalone="no"?>
<!-- Created with Inkscape (http://www.inkscape.org/) -->

<svg
   version="1.1"
   id="svg1"
   width="1280"
   height="1024"
   viewBox="0 0 1280 1024"
   sodipodi:docname="Print.eps"
   xmlns:inkscape="http://www.inkscape.org/namespaces/inkscape"
   xmlns:sodipodi="http://sodipodi.sourceforge.net/DTD/sodipodi-0.dtd"
   xmlns="http://www.w3.org/2000/svg"
   xmlns:svg="http://www.w3.org/2000/svg">
  <defs
     id="defs1" />
  <sodipodi:namedview
     id="namedview1"
     pagecolor="#ffffff"
     bordercolor="#000000"
     borderopacity="0.25"
     inkscape:showpageshadow="2"
     inkscape:pageopacity="0.0"
     inkscape:pagecheckerboard="0"
     inkscape:deskcolor="#d1d1d1">
    <inkscape:page
       x="0"
       y="0"
       inkscape:label="1"
       id="page1"
       width="1280"
       height="1024"
       margin="0"
       bleed="0" />
  </sodipodi:namedview>
  <g
     id="g1"
     inkscape:groupmode="layer"
     inkscape:label="1">
    <path
       id="path1"
       d="M 0,0 H 9600 V 7680 H 0 Z"
       style="fill:#ffffff;fill-opacity:1;fill-rule:nonzero;stroke:none"
       transform="matrix(0.13333333,0,0,-0.13333333,0,1024)" />
    <path
       id="path2"
       d="m 4406.41,6106.99 h 322.77 c 9.92,-29.8 9.92,-29.8 12.46,-43.32 l 0.94,-4.69 c 0.97,-4.96 1.95,-9.96 2.93,-14.92 l 2.07,-10.51 c 1.8,-9.14 3.59,-18.28 5.35,-27.42 2.89,-14.68 5.74,-29.37 8.67,-44.06 0.98,-5.12 1.99,-10.23 2.97,-15.35 l 1.84,-9.38 0.82,-4.29 0.78,-3.95 0.66,-3.44 0.86,-3.12 c 0.9,-1.92 1.84,-3.87 2.85,-5.74 l 5.04,-1.14 c 31.49,-7.14 62.81,-14.8 93.87,-23.71 l 3.44,-1.01 c 11.36,-3.24 22.69,-6.56 34.06,-9.92 4.26,-1.25 8.55,-2.5 12.81,-3.75 2.97,-0.86 5.9,-1.76 8.87,-2.62 4.92,-1.45 9.8,-2.85 14.84,-3.95 3.99,-0.39 7.5,-0.35 11.53,0 l 1.79,4.57 c 1.6,3.21 1.6,3.21 3.95,6.96 4.8,5.62 9.84,10.97 14.96,16.29 12.58,13.04 24.73,26.28 36.01,40.43 10.94,13.71 22.54,26.64 34.42,39.53 9.22,10 18.12,20.27 27.03,30.54 l 11.52,2.86 c 48.48,-25.43 96.45,-51.45 143.56,-79.34 13.01,-7.7 26.13,-15.16 39.26,-22.62 22.07,-12.5 43.98,-25.27 65.74,-38.32 l 3.83,-2.3 c 3.55,-2.11 7.07,-4.26 10.62,-6.41 l 3.17,-1.91 c 2.57,-1.53 5.07,-3.13 7.57,-4.69 l 2.89,-2.89 c -1.52,-20.04 -1.52,-20.04 -3.59,-29.06 -1.87,-6.96 -4.26,-13.79 -6.64,-20.59 l -2.19,-6.56 c -1.95,-5.71 -3.86,-11.41 -5.86,-17.07 -1.91,-5.67 -3.86,-11.33 -5.78,-17 -2.97,-8.86 -6.01,-17.73 -9.02,-26.6 l -1.1,-3.24 c -2.14,-6.29 -4.33,-12.62 -6.56,-18.87 -1.37,-3.94 -2.73,-7.85 -4.1,-11.79 -0.94,-2.66 -1.87,-5.28 -2.81,-7.93 -1.64,-4.73 -3.09,-9.34 -4.22,-14.22 -0.39,-5.74 -0.39,-11.52 0,-17.27 8.01,-8.08 16.01,-16.13 24.06,-24.22 3.71,-3.75 7.46,-7.46 11.17,-11.21 3.6,-3.63 7.19,-7.26 10.82,-10.89 2.04,-2.04 4.03,-4.07 6.06,-6.1 7.19,-7.19 14.53,-13.83 22.62,-20 2.85,-2.34 5.46,-4.88 7.89,-7.66 1.48,-1.75 2.93,-3.51 4.37,-5.31 12.38,-14.65 26.13,-27.97 39.81,-41.4 19.18,3.71 37.5,9.21 55.97,15.43 4.89,1.64 9.77,3.28 14.65,4.88 13.83,4.57 27.66,9.18 41.49,13.83 8.51,2.85 17.03,5.66 25.54,8.47 3.21,1.06 6.45,2.15 9.65,3.25 4.49,1.48 8.99,3 13.52,4.49 l 3.94,1.36 c 3.67,1.18 7.27,2.23 11.02,3.05 4.8,0.28 9.61,0.28 14.41,0 l 9.3,-15.86 1.48,-2.5 c 5.98,-10.23 11.96,-20.43 17.97,-30.66 l 1.68,-2.89 6.88,-11.72 c 6.6,-11.33 13.24,-22.62 19.88,-33.87 34.14,-58.01 67.23,-116.64 98.44,-176.29 l -2.89,-11.52 c -19.81,-17.07 -39.69,-34.06 -59.61,-50.98 l -2.35,-1.99 c -10.62,-8.98 -21.4,-17.89 -32.22,-26.64 -15.2,-12.3 -29.73,-25.31 -44.14,-38.55 0.74,-7.86 1.68,-15.67 3.71,-23.32 2.14,-7.19 4.53,-14.3 6.87,-21.45 9.81,-30.16 17.15,-60.63 23.83,-91.56 l 0.66,-3.17 c 1.49,-6.91 2.97,-13.82 4.46,-20.78 l 1.13,-5.35 1.02,-4.96 0.93,-4.34 c 0.63,-3.75 0.63,-3.75 0.63,-9.49 l 2.34,-0.43 c 43.09,-7.54 86.13,-15.35 129.1,-23.44 l 14.46,-2.69 c 5.7,-1.1 11.44,-2.15 17.14,-3.24 l 6.37,-1.18 c 2.89,-0.54 5.82,-1.09 8.71,-1.68 l 4.96,-0.93 4.22,-1.02 c 1.96,-0.9 3.87,-1.87 5.78,-2.85 2.35,-64.02 3.32,-127.93 3.25,-191.95 0,-9.18 0,-18.36 0,-27.54 0,-9.06 0,-18.09 0,-27.15 0,-5.31 0,-10.66 0,-15.98 0.03,-5.82 0,-11.68 0,-17.54 v -5.11 c -0.04,-11.76 -1.33,-23.05 -3.25,-34.61 l -5.78,-5.78 -5.58,-1.14 c -17.5,-3.59 -35,-7.18 -52.5,-10.82 -9.03,-1.83 -18.01,-3.71 -27,-5.54 -8.71,-1.8 -17.42,-3.6 -26.13,-5.39 -3.28,-0.67 -6.6,-1.33 -9.88,-2.04 -21.37,-4.33 -42.38,-9.37 -63.36,-15.43 l -0.67,-2.92 c -10.11,-43.87 -21.01,-87.35 -33.71,-130.51 l -0.89,-3.05 c -3.56,-12.15 -7.19,-24.3 -10.82,-36.41 19.45,-22.89 19.45,-22.89 26.64,-30.07 l 2.42,-2.43 c 11.56,-11.29 24.45,-21.05 37.22,-30.89 -0.27,-4.11 -0.78,-8.13 -1.48,-12.19 l -1.41,-5.12 c -3.47,-7.26 -7.81,-13.94 -12.22,-20.7 -1.29,-1.99 -2.58,-3.99 -3.87,-6.02 -14.69,-22.85 -30.16,-45.19 -45.62,-67.54 -4.26,-6.17 -8.56,-12.38 -12.78,-18.59 -7.15,-10.43 -14.3,-20.86 -21.52,-31.25 l -3.95,-5.74 c -31.36,-45.39 -64.96,-89.07 -98.86,-132.58 -14.15,1.33 -27.23,3.83 -40.9,7.58 l -4.34,1.29 c -4.18,1.13 -8.12,2.11 -12.42,2.65 -4.1,-0.35 -7.85,-1.09 -11.84,-2.11 l -2.57,-0.74 c -4.15,-4.1 -8.29,-8.2 -12.43,-12.3 -2.07,-2.04 -4.14,-4.07 -6.21,-6.14 -7.81,-7.69 -15.27,-15.7 -22.38,-24.06 -11.41,-13.2 -23.67,-25.55 -36.06,-37.85 -3.78,-3.79 -7.61,-7.62 -11.4,-11.41 -12.31,-12.3 -24.57,-24.37 -38.32,-35.04 6.17,-24.61 14.26,-48.28 23.05,-72.07 l -2.86,-14.41 -3.63,-3.09 c -9.8,-8.39 -19.41,-17.03 -28.83,-25.82 l -2.5,-2.38 -2.54,-2.38 c -16.09,-15.12 -32.42,-29.65 -49.68,-43.48 -6.33,-5.08 -12.58,-10.31 -18.71,-15.62 -53.64,-46.18 -111.53,-87.58 -170.79,-126.21 l -11.52,2.85 c -14.34,15.47 -28.4,30.93 -41.6,47.38 -14.14,17.62 -29.41,34.14 -44.84,50.62 l -2.31,-0.62 c -38.59,-10.59 -77.23,-20.86 -116.02,-30.55 l -5.11,-1.29 c -19.3,-4.8 -38.63,-9.49 -58.13,-13.67 -5.11,-13.2 -7.89,-26.68 -10.66,-40.54 l -1.76,-9.03 -1.87,-9.45 c -1.64,-8.24 -3.25,-16.49 -4.89,-24.73 -2.58,-13.16 -5.19,-26.33 -7.81,-39.49 -0.9,-4.57 -1.8,-9.1 -2.69,-13.67 -3.29,-16.84 -6.84,-33.63 -10.63,-50.39 l -2.89,-2.89 H 4409.3 l -5.78,5.78 -0.55,2.77 c -4.65,22.27 -9.3,44.53 -13.95,66.8 -2.26,10.78 -4.49,21.56 -6.72,32.3 -1.95,9.42 -3.94,18.79 -5.89,28.17 -1.02,5 -2.07,9.96 -3.09,14.92 -1.17,5.55 -2.34,11.09 -3.48,16.64 l -1.05,5 -0.94,4.57 -0.86,3.98 c -0.94,3.52 -0.94,3.52 -2.46,6.84 l -1.37,2.42 -2.54,0.59 c -11.24,2.61 -22.46,5.23 -33.63,7.89 l -5.58,1.33 c -22.39,5.31 -44.65,11.01 -66.72,17.5 l -3.09,0.89 c -9.92,2.9 -19.8,5.86 -29.69,8.87 -2.77,0.82 -5.58,1.68 -8.36,2.5 -3.39,1.02 -6.79,2.07 -10.15,3.13 -4.38,1.29 -8.67,2.5 -13.13,3.43 -4.8,0.32 -9.61,0.32 -14.41,0 l -2.15,-4.96 c -1.13,-2.22 -2.34,-4.41 -3.59,-6.56 -3.67,-4.65 -7.7,-8.87 -11.72,-13.16 -9.18,-9.96 -18.01,-20.08 -26.49,-30.63 -16.52,-20.43 -33.86,-40.19 -51.13,-59.96 l -3.67,-4.18 c -5.47,-6.29 -10.98,-12.62 -16.52,-18.87 l -8.64,-2.89 c -37.93,18.32 -74.8,38.09 -111.33,59.07 -9.57,5.47 -19.17,10.93 -28.78,16.29 -30.16,16.87 -60.08,34.1 -89.81,51.68 l -7.77,4.6 c -4.85,2.86 -9.65,5.71 -14.49,8.6 l -4.34,2.54 c -8.05,4.8 -15.66,9.92 -23.01,15.7 0.9,9.65 1.92,19.14 4.26,28.56 1.64,5.46 3.4,10.85 5.23,16.28 0.67,2 1.33,4.03 1.96,6.02 1.4,4.26 2.81,8.48 4.22,12.7 2.18,6.6 4.33,13.16 6.48,19.76 2.85,8.63 5.7,17.31 8.55,25.94 9.3,28.2 9.3,28.2 13.4,41.01 1.06,3.29 2.15,6.53 3.25,9.77 1.68,5.23 3.28,10.43 4.53,15.78 0.35,4.06 0.43,7.93 0.23,12.03 l -0.23,2.35 -2.07,1.83 c -74.77,66.92 -74.77,66.92 -100,96.33 -8.68,10.08 -18.13,19.34 -27.62,28.63 -35,-10.31 -69.57,-22.11 -104.18,-33.67 -8.09,-2.69 -16.17,-5.43 -24.26,-8.12 -15.78,-5.28 -31.56,-10.55 -47.34,-15.82 l -11.53,2.89 c -18.98,27.81 -37.03,56.29 -54.14,85.31 -1.75,3.01 -3.51,6.01 -5.27,8.98 -9.02,15.24 -17.97,30.51 -26.87,45.78 -25.16,43.01 -48.79,86.84 -72.23,130.82 1.76,3.91 3.67,7.74 5.78,11.53 3.05,3.51 3.05,3.51 6.37,6.48 l 3.79,3.44 4.06,3.55 4.26,3.83 c 10.54,9.38 21.4,18.4 32.42,27.23 11.05,8.98 21.87,18.2 32.65,27.5 17.08,14.69 34.34,29.1 51.88,43.24 0.43,3.95 0.55,7.81 0.55,11.8 -0.55,5.47 -0.55,5.47 -1.21,8.28 -1.96,6.72 -4.34,13.28 -6.64,19.84 -10.86,31.06 -18.44,62.74 -25.67,94.77 l -1.56,6.91 c -1.68,7.54 -3.36,15.04 -5.04,22.58 -0.63,2.81 -1.25,5.63 -1.88,8.44 l -1.05,4.8 -0.74,4.1 v 5.79 l -5.24,0.43 c -18.2,1.6 -35.86,4.53 -53.75,8.2 l -8.39,1.68 c -7.27,1.48 -14.54,2.97 -21.84,4.45 -7.34,1.49 -14.69,2.97 -22.03,4.45 -10.86,2.19 -21.68,4.42 -32.5,6.61 -14.53,2.97 -29.03,5.86 -43.56,8.75 l -5.74,8.63 c -0.08,34.53 -0.16,69.06 -0.16,103.59 -0.03,16.02 -0.03,32.07 -0.07,48.09 -0.04,14.02 -0.04,28.01 -0.04,41.99 0,7.42 -0.04,14.81 -0.04,22.19 -0.12,33.83 0.47,67.42 3.16,101.17 23.67,6.17 47.35,11.33 71.37,15.78 l 10.16,1.92 c 8.75,1.64 17.5,3.24 26.25,4.88 8.98,1.68 17.96,3.36 26.95,5.04 17.54,3.28 35.08,6.56 52.62,9.84 1.99,3.79 3.9,7.62 5.74,11.52 1.21,3.83 1.21,3.83 1.91,7.31 l 0.86,4.02 0.86,4.26 1.99,9.41 1.06,5 c 6.79,32.39 14.76,64.22 24.26,95.9 3.43,11.76 6.71,23.25 8.16,35.43 0.51,4.81 0.94,9.65 1.25,14.46 -6.99,6.01 -13.98,12.03 -20.98,18.04 -13.08,11.25 -26.36,22.31 -39.84,33.17 -8.67,7.11 -17.03,14.49 -25.27,22.11 -16.49,15.15 -34.34,28.51 -52.23,41.95 l -2.89,11.52 c 22.15,42.03 44.61,83.75 68.79,124.65 l 4.96,8.48 2.46,4.18 c 9.06,15.35 17.73,30.86 26.45,46.4 17.07,30.39 34.84,60.28 52.96,90.08 20.04,-1.56 20.04,-1.56 29.03,-3.59 6.91,-1.88 13.67,-4.22 20.43,-6.56 2.15,-0.71 4.33,-1.45 6.48,-2.19 5.7,-1.88 11.37,-3.83 16.99,-5.78 4.5,-1.53 8.99,-3.05 13.48,-4.57 19.06,-6.41 38.13,-12.89 57.03,-19.77 l 6.68,-2.46 c 4.22,-1.52 8.4,-3.05 12.58,-4.65 5.27,-1.91 10.55,-3.75 15.98,-5.19 4.1,-0.43 7.93,-0.51 12.03,-0.28 l 2.38,0.28 c 5.9,5.82 11.8,11.68 17.66,17.5 1.99,1.99 3.98,3.98 6.01,5.93 19.06,18.83 19.06,18.83 27.46,29.26 3.79,4.65 7.5,9.02 12.03,13.01 1.76,1.44 3.52,2.93 5.28,4.34 8.9,7.53 17.22,15.46 25.39,23.78 10.51,10.71 21.4,20.51 32.97,30.08 -0.47,7.78 -1.37,15.43 -2.89,23.05 -3.29,12.69 -7.54,25.12 -11.64,37.58 l -3.48,10.74 c -2.7,8.4 -5.43,16.84 -8.2,25.23 -3.13,9.57 -6.25,19.18 -9.34,28.75 -6.37,19.73 -12.77,39.42 -19.22,59.11 l 5.78,11.52 c 89.42,54.88 182.03,104.73 273.75,155.59 l 11.53,-2.86 c 66.6,-76.68 66.6,-76.68 89.06,-104.37 9.41,-11.56 19.18,-22.81 29.1,-33.95 7.77,0.51 15.43,1.41 23.05,2.85 10.19,2.54 20.19,5.79 30.23,8.95 31.17,9.69 62.46,18.12 94.22,25.66 l 2.85,0.67 c 11.33,2.69 22.7,5.35 34.06,7.97 2.66,5.97 5.16,11.95 6.8,18.32 0.9,4.22 1.68,8.4 2.46,12.61 l 0.9,4.81 c 0.66,3.44 1.29,6.84 1.91,10.27 1.02,5.39 2.04,10.82 3.09,16.21 2.54,13.44 5.04,26.92 7.58,40.36 2.11,11.36 4.26,22.77 6.44,34.14 0.98,5.31 2,10.62 2.97,15.97 l 1.88,9.81 0.78,4.45 0.82,4.18 0.66,3.59 c 1.64,5.43 4.42,10.43 6.96,15.47 m 31.71,-426.52 -4.84,-0.7 c -53.08,-8.21 -104.18,-20.94 -155.04,-38.21 -24.06,-8.24 -47.73,-16.64 -70.12,-28.79 -4.92,-2.61 -9.8,-5.15 -14.96,-7.22 -3.24,-0.86 -3.24,-0.86 -6.4,-1.37 -3.09,-0.2 -6.17,-0.23 -9.26,-0.12 -11.95,1.21 -23.71,4.22 -35.43,6.84 -12.38,2.81 -24.49,5.04 -37.23,5.82 -30.43,1.33 -61.44,2.34 -91.75,-1.41 -16.1,-2.19 -32,-5.08 -47.58,-9.76 2.26,-6.37 4.76,-12.5 7.93,-18.48 2.54,-4.45 5.11,-8.83 7.73,-13.2 l 4.34,-7.39 c 3.51,-5.97 7.07,-11.99 10.62,-17.96 1.99,-3.36 3.99,-6.72 5.98,-10.12 1.84,-3.17 3.71,-6.33 5.62,-9.49 2.43,-4.18 4.73,-8.29 6.76,-12.7 1.37,-4.69 2.31,-9.53 2.89,-14.37 l -3.04,-2.31 c -28.52,-21.56 -54.85,-44.88 -80.55,-69.76 l -5.39,-5.24 c -20.55,-19.8 -40.04,-39.96 -57.58,-62.54 -3.75,-4.8 -7.5,-9.53 -11.33,-14.29 -14.53,-18.21 -28.55,-36.49 -40.97,-56.25 v -5.79 h -8.64 l -0.74,2.93 c -1.44,4.89 -3.01,9.69 -5.04,14.38 -4.37,8.63 -9.65,16.8 -14.76,25.04 -3.09,5.11 -6.22,10.19 -9.3,15.31 l -2.5,4.1 c -6.72,11.06 -13.36,22.19 -19.92,33.36 l -3.09,5.2 c -4.02,6.83 -8.05,13.67 -12.07,20.5 -11.56,19.69 -23.4,39.07 -36.33,57.86 l -8.63,-2.86 c -21.41,-28.36 -42.54,-56.75 -58.83,-88.47 -10.9,-21.6 -20.12,-43.91 -27.26,-67.07 -3.87,-13.13 -6.88,-26.49 -9.73,-39.89 l -0.74,-3.39 c -4.18,-19.69 -6.8,-39.42 -7.5,-59.57 -0.2,-8.01 -0.28,-16.02 -0.24,-24.03 v -4.33 c 0.08,-27.7 1.88,-54.81 6.29,-82.11 l 0.55,-3.28 c 4.53,-27.5 11.09,-54.3 20.19,-80.67 7.7,-21.91 17.19,-42.69 28.48,-62.97 10.63,-18.79 22.31,-36.91 34.38,-54.84 l -0.55,-4.88 c -5,-47.15 -7.03,-93.32 -3.87,-140.71 3.75,-52.03 12.89,-103.82 25.55,-154.41 13.32,-51.95 31.87,-102.85 53.98,-151.68 20.59,-44.88 45.16,-87.15 73.13,-127.77 15.82,-22.86 32.22,-45.16 50.58,-66.06 l 3.09,-3.51 c 6.37,-7.19 12.81,-14.34 19.34,-21.45 3.16,-3.44 6.28,-6.91 9.45,-10.39 21.87,-24.14 44.02,-47.42 68.98,-68.4 l 2.31,-1.91 c 28.79,-24.26 58.32,-46.8 89.92,-67.23 l 3.05,-1.99 c 39.18,-25.24 79.84,-48.95 122.77,-67.27 19.38,-8.12 38.95,-15.66 58.63,-22.97 l 3.64,-1.36 c 44.68,-16.68 91.17,-27.93 138,-36.68 17.11,-3.09 34.22,-5.71 51.41,-8.05 l 3.87,-0.55 c 54.57,-7.42 110.43,-7.14 165.39,-5.04 19.61,0.9 39.02,2.9 58.44,5.59 l 4.02,0.55 c 55.35,7.65 110.19,19.26 163.44,36.21 49.76,16.17 97.65,37.03 143.9,61.4 41.99,22.35 81.56,48.17 119.06,77.43 1.72,1.32 3.44,2.69 5.16,4.02 2.31,1.8 4.57,3.59 6.88,5.39 39.1,30.7 76.68,65.66 110.04,102.58 7.3,8.32 14.14,16.99 20.93,25.74 2.85,3.59 5.82,7.07 8.83,10.51 27.77,32.19 50.74,68.79 72.58,105.19 25.78,43.52 48.71,89.69 66.72,136.96 18.04,48.47 31.4,99.1 40.82,149.92 4.26,23.48 7.58,47.07 9.92,70.82 l 0.51,4.88 c 4.65,47.15 4.26,95.55 0.9,142.74 -4.22,54.29 -13.64,108.04 -26.84,160.82 -11.41,44.33 -26.87,88.28 -45.51,130.08 -4.57,9.76 -10.04,19.02 -15.51,28.32 l 4.22,2.42 c 11.96,7.11 23.36,15 33.99,23.98 4.88,4.38 9.41,8.91 13.67,13.95 4.65,6.87 8.28,14.1 11.76,21.64 5.86,13.55 11.05,27.38 16.13,41.25 5.63,15.27 11.76,30.23 18.09,45.19 l 2.97,7.03 4.45,10.51 c 5.15,12.11 10.27,24.26 15.31,36.41 l 1.25,3.04 c 6.17,14.89 11.88,29.85 16.49,45.28 -25.59,20.31 -52.66,38.24 -79.89,56.21 l -4.49,2.97 c -2.81,1.87 -5.59,3.71 -8.4,5.54 -7.69,5.04 -15.19,10.4 -22.5,15.98 -4.88,-0.74 -4.88,-0.74 -8.08,-1.56 l -3.44,-1.33 c -5.04,-3.16 -9.53,-6.95 -14.06,-10.78 l -4.07,-3.4 c -14.49,-12.23 -28.28,-25.19 -42.11,-38.16 -8.71,-8.25 -17.61,-16.25 -26.68,-24.1 -9.02,-7.78 -17.85,-15.82 -26.68,-23.83 -8,-7.27 -16.25,-14.1 -24.72,-20.74 -14.49,11.87 -27.74,24.64 -40.82,38.04 -17.85,18.21 -35.78,35.55 -56.06,51.06 -4.41,3.43 -8.75,6.95 -13.08,10.47 -38.71,31.48 -80.43,58.59 -124.03,82.89 -47.73,26.36 -97.22,48.55 -148.82,66.25 -55.36,18.59 -112.9,30.58 -170.51,39.45 l -3.87,0.62 c -49.22,7.5 -99.92,6.72 -149.61,5.67 -31.72,-0.78 -63.01,-4.26 -94.34,-9.18"
       style="fill:#074e8d;fill-opacity:1;fill-rule:nonzero;stroke:none"
       transform="matrix(0.13333333,0,0,-0.13333333,0,1024)" />
    <path
       id="path3"
       d="m 6167.19,6239.57 8.63,-5.78 c 3.75,-10.86 7.5,-21.72 11.29,-32.58 6.01,-17.38 12.11,-34.69 18.51,-51.91 35,-94.46 61.22,-191.76 82.58,-290.16 l 0.78,-3.48 c 20.55,-94.33 35.9,-189.29 45.71,-285.35 l 1.01,-9.96 c 8.36,-80.82 11.14,-161.72 10.9,-242.93 -0.04,-7.73 -0.04,-15.47 0,-23.2 0.28,-82.23 -2.62,-164.26 -11.21,-246.1 l -1.05,-10.27 c -10.2,-98.87 -25.98,-196.68 -46.14,-293.94 l -0.66,-3.36 c -23.63,-114.42 -56.72,-227.23 -123.87,-411.76 -22.38,-56.29 -46.79,-111.56 -72.77,-166.33 -3.56,-7.5 -7.07,-15.04 -10.59,-22.58 -17.19,-36.83 -35.66,-72.69 -55.51,-108.2 -3.94,-7.03 -7.81,-14.1 -11.71,-21.17 -36.68,-66.84 -76.57,-131.6 -119.69,-194.53 l -2.74,-4.03 c -36.52,-53.36 -73.86,-105.86 -115.04,-155.7 -6.09,-7.38 -12.1,-14.84 -18,-22.38 -11.84,-14.89 -24.14,-29.38 -36.49,-43.83 -4.37,-5.16 -8.75,-10.31 -13.12,-15.47 -28.56,-33.75 -28.56,-33.75 -40.78,-45.39 -5.86,-5.63 -11.18,-11.6 -16.45,-17.77 -10.86,-12.54 -22.42,-24.34 -34.18,-36.06 l -6.52,-6.52 c -4.53,-4.53 -9.06,-9.06 -13.6,-13.6 -5.78,-5.7 -11.48,-11.44 -17.22,-17.22 -4.49,-4.49 -8.99,-8.95 -13.48,-13.44 -2.11,-2.11 -4.22,-4.22 -6.33,-6.37 -12.42,-12.42 -25.07,-24.37 -38.43,-35.82 -4.93,-4.26 -9.73,-8.59 -14.46,-13.08 -2.18,-2.03 -4.41,-4.1 -6.6,-6.18 -15.7,-14.68 -31.99,-28.74 -48.79,-42.14 -4.92,-3.95 -9.76,-7.93 -14.65,-11.96 -85.74,-70.78 -177.5,-133.32 -274.1,-188.24 -3.63,-2.07 -7.26,-4.14 -10.86,-6.25 -75.47,-43.51 -156.36,-79.3 -238.16,-109.06 -79.45,-28.48 -161.76,-50.78 -244.92,-65.12 -69.69,-11.8 -139.53,-19.37 -210.2,-20.62 l -4.26,-0.08 c -20.7,-0.31 -41.32,-0.27 -62.03,0.08 l -3.9,0.07 c -67.82,0.94 -135.75,9.38 -202.31,22.08 -63.36,12.38 -125.9,30 -186.25,52.96 -59.1,22.86 -115.15,50.94 -169.49,83.4 l -3.4,2.03 c -27.73,16.57 -54.37,34.42 -80.35,53.64 -2.81,2.07 -5.63,4.1 -8.48,6.17 -23.04,16.87 -45.31,33.98 -66.17,53.55 -3.55,3.28 -7.23,6.53 -10.94,9.65 -37.93,32.54 -73.86,67.38 -105.82,105.86 -4.22,5.16 -8.36,10.35 -12.5,15.55 -3.04,3.79 -6.09,7.58 -9.18,11.33 -39.68,48.04 -74.61,99.45 -105.39,153.63 -35.82,63.47 -65.27,128.94 -89.76,197.65 -21.68,61.68 -37.46,125.36 -48.09,189.85 -7.42,45.7 -13.05,91.44 -16.09,137.65 l 5.78,-2.89 c 3.47,-7.5 6.37,-15.07 8.63,-23.04 1.33,-6.49 2.34,-13.05 3.4,-19.61 9.02,-53.28 27.81,-105.67 45.82,-156.49 10.39,-28.98 22.62,-57.11 35.43,-85.07 1.76,-3.91 3.52,-7.78 5.27,-11.68 22.35,-49.69 49.07,-96.61 79.69,-141.72 37.03,-54.07 78.95,-104.1 124.73,-150.94 14.57,-14.81 29.33,-29.18 45.23,-42.54 3.2,-2.73 6.37,-5.55 9.53,-8.36 43.28,-38.4 90.39,-72.11 139.53,-102.62 19.22,-11.79 38.95,-22.65 58.91,-33.12 l 2.97,-1.56 c 14.22,-7.43 28.63,-14.61 43.12,-21.49 l 2.93,-1.4 c 47.7,-22.74 97.39,-41.33 148.21,-55.71 60.86,-16.83 123.04,-28.9 185.9,-35.08 61.36,-5.82 123.04,-7.03 184.57,-3.63 l 3.39,0.2 c 76.57,4.22 152.39,15.07 227.15,32.22 79.65,18.91 157.97,45.08 233.13,77.43 52.93,23.04 104.14,48.78 154.02,77.85 6.99,4.06 14.02,8.04 21.09,11.95 52.54,28.98 102.7,62.66 150.71,98.55 3.04,2.27 6.09,4.54 9.18,6.76 23.12,17.11 45.86,34.49 67.97,52.93 3.67,3.05 7.38,6.1 11.13,9.1 33.4,27 65.7,55.28 97.07,84.65 5.08,4.73 10.19,9.42 15.35,14.06 20.74,18.83 40.82,38.21 60.59,58.05 4.1,4.1 8.16,8.17 12.26,12.27 16.33,16.25 32.35,32.61 47.27,50.19 5.66,6.56 11.68,12.82 17.58,19.14 11.13,12.03 21.83,24.46 32.11,37.23 5.86,7.3 11.87,14.49 18,21.56 19.89,22.81 38.56,46.37 56.8,70.55 5.66,7.46 11.45,14.88 17.27,22.26 21.91,27.66 42.65,56.25 62.26,85.59 3.99,6.02 8.01,11.99 12.03,17.97 46.72,69.1 91.41,139.22 131.84,212.23 l 2.23,4.02 c 58.9,106.13 111.91,215.39 198.16,442.23 4.3,12.61 8.59,25.27 12.85,37.89 l 1.17,3.47 c 42.19,125.2 75,252.97 99.69,382.7 l 0.66,3.36 c 22.31,116.99 36.64,235.58 51.22,426.01 l 0.27,4.53 c 7.73,137.78 4.65,277.19 -16.52,497.19 -7.54,63.32 -17.58,125.43 -34.03,187.11 -2.93,10.94 -5.66,21.92 -7.97,33.01 l -0.7,3.36 c -0.9,4.61 -1.56,9.02 -1.72,13.67 0,3.48 0.04,6.95 0.16,10.43"
       style="fill:#074e8d;fill-opacity:1;fill-rule:nonzero;stroke:none"
       transform="matrix(0.13333333,0,0,-0.13333333,0,1024)" />
    <path
       id="path4"
       d="m 6181.6,6164.65 h 2.89 c 25.94,-109.65 38.44,-222.11 45.04,-334.49 0.35,-6.64 0.7,-13.32 1.06,-20 l 0.23,-4.89 c 3.98,-78 3.32,-156.21 2.66,-234.29 l -0.04,-3.4 c -0.24,-25.78 -1.17,-51.56 -2.85,-77.31 l -0.24,-3.51 c -9.18,-143.28 -25.47,-285.9 -82.73,-572.07 -18.32,-75.12 -39.92,-149.18 -64.03,-222.66 l -1.17,-3.63 c -29.8,-90.94 -63.83,-179.73 -102.54,-267.27 l -2.03,-4.57 c -36.01,-81.21 -75.27,-161.79 -120.27,-238.44 -4.81,-8.16 -9.53,-16.4 -14.26,-24.64 -57.77,-100.47 -121.56,-197.78 -193.05,-289.07 -2.54,-3.24 -5.04,-6.48 -7.54,-9.76 -15,-19.3 -30.31,-38.28 -46.17,-56.88 -8.36,-9.76 -16.56,-19.68 -24.65,-29.72 -11.13,-13.75 -22.93,-26.84 -34.88,-39.85 -4.76,-5.15 -9.41,-10.35 -13.98,-15.66 -26.14,-30.24 -53.79,-58.95 -82.07,-87.15 -4.26,-4.22 -8.48,-8.44 -12.7,-12.69 -16.6,-16.65 -33.24,-33.01 -51.17,-48.25 -4.02,-3.43 -7.89,-7.07 -11.76,-10.7 l -2.19,-2.07 -4.41,-4.14 c -13.28,-12.42 -26.84,-24.42 -41.05,-35.82 -7.27,-5.82 -14.46,-11.8 -21.49,-17.93 -22.07,-19.3 -44.8,-37.27 -68.4,-54.65 -6.64,-4.88 -13.24,-9.84 -19.76,-14.88 -29.73,-22.78 -60.55,-43.67 -91.92,-64.1 -3.51,-2.31 -7.03,-4.57 -10.54,-6.88 -38.91,-25.43 -79.14,-48.24 -119.93,-70.43 l -4.33,-2.34 c -72.74,-39.65 -148.75,-72.46 -227.27,-98.95 -21.56,-7.18 -43.36,-13.63 -65.23,-19.76 l -4.73,-1.33 c -72.65,-20.31 -147.15,-33.91 -222.22,-41.37 -64.69,-6.21 -129.26,-7.93 -194.15,-4.14 l -3.2,0.2 c -63.4,3.71 -126.41,12.96 -188.2,27.61 -58.56,13.95 -114.73,32.85 -170,56.61 -17.27,7.5 -34.18,15.54 -50.78,24.41 -5.71,3.01 -11.45,5.94 -17.27,8.75 -49.73,24.3 -95.66,55.78 -140.35,88.28 -54.18,39.77 -103.83,86.48 -150.31,134.92 -7.03,7.42 -13.64,15.2 -20.16,23.05 l -3.91,4.69 c -40,47.73 -75.82,98.79 -107.07,152.65 -17.18,29.89 -32.77,60.43 -47.14,91.76 l -1.92,4.14 c -18.12,39.69 -33.2,80.04 -46.52,121.52 l -3.4,10.59 c -26.13,81.13 -26.13,81.13 -32.46,119.88 l -0.47,3.52 c -0.43,3.36 -1.13,6.72 -2.07,10 -1.41,2.62 -2.85,5.23 -4.38,7.85 -2.34,4.61 -2.34,4.61 -4.25,9.41 -0.78,4.85 -0.98,9.38 -0.98,14.26 l 0.12,5.08 0.04,5.35 c 0.07,5.59 0.15,11.17 0.27,16.76 0.04,3.79 0.08,7.62 0.12,11.41 0.11,9.29 0.23,18.55 0.43,27.85 h 5.78 l 1.01,-5 c 7.97,-37.62 17,-74.3 30.67,-110.28 l 1.4,-3.71 c 22.74,-59.49 50.2,-118.4 82.89,-173.12 18.48,-30.39 38.68,-59.69 59.81,-88.28 l 1.87,-2.58 c 8.75,-11.84 17.74,-23.44 26.92,-34.88 l 3.48,-4.38 c 19.96,-25.04 42.34,-47.81 64.96,-70.51 2.3,-2.34 4.64,-4.72 6.99,-7.07 20,-20.15 40.51,-38.9 62.93,-56.36 l 3.51,-2.82 c 7.89,-6.17 15.82,-12.26 23.83,-18.28 l 3.71,-2.77 c 26.14,-19.57 53.25,-37.31 81.33,-53.95 l 3.16,-1.87 c 51.76,-30.7 106.29,-56.88 162.54,-78.28 56.64,-21.33 114.26,-36.37 173.68,-47.7 30.39,-5.7 60.97,-9.8 91.75,-12.97 2.54,-0.23 5.12,-0.5 7.66,-0.78 20.39,-2.15 40.55,-3.01 60.98,-3.08 l 9.25,-0.08 c 9.85,-0.04 19.69,-0.04 29.5,-0.04 l 5.11,-0.04 c 50.9,0 100.9,0.86 151.29,8.55 4.81,0.75 9.57,1.45 14.38,2.15 59.33,8.67 117.65,19.73 175.39,36.14 l 5.12,1.44 c 54.33,15.47 107.03,34.42 159.14,56.21 l 4.76,1.95 c 71.33,29.97 139.42,64.69 205.63,104.65 l 8,4.85 c 52.08,31.4 102.15,65.31 150.36,102.38 3.16,2.38 6.29,4.8 9.45,7.23 25.31,19.37 50.23,39.1 74.41,59.88 8.05,6.91 16.25,13.55 24.53,20.19 13.13,10.63 25.59,21.84 37.97,33.32 6.8,6.33 13.6,12.58 20.67,18.56 13.86,11.68 26.44,24.65 39.18,37.5 20.08,20.31 20.08,20.31 30.93,29.34 11.41,9.45 21.1,20.43 30.98,31.4 l 4.02,4.46 2,2.22 c 5.27,5.78 10.7,11.41 16.32,16.84 8.52,8.36 16.37,17.18 24.15,26.21 4.84,5.55 9.76,11.05 14.72,16.48 12.19,13.36 23.83,27.11 35.2,41.17 5.43,6.68 10.9,13.36 16.44,19.97 23.36,27.93 45.43,56.6 67.11,85.85 6.25,8.36 12.58,16.68 19.03,24.89 16.64,21.29 31.91,43.36 46.99,65.78 1.79,2.66 3.59,5.31 5.39,7.97 7.77,11.56 15.47,23.12 23.12,34.76 l 7.07,10.71 c 24.57,37.11 48.4,74.53 70.82,112.93 2.11,3.55 4.18,7.11 6.29,10.7 24.34,41.41 46.6,83.79 68.4,126.6 2.23,4.34 4.45,8.71 6.68,13.05 19.57,38.08 37.46,76.68 54.34,115.97 3.36,7.9 6.75,15.71 10.19,23.56 51.1,116.91 94.38,236.33 168.71,499.3 22.43,92.69 40.82,185.93 55.82,280.15 l 1.57,9.81 c 8.67,53.71 15.11,107.61 20.5,161.75 0.43,4.34 0.86,8.68 1.29,13.05 2.15,21.17 3.99,42.35 5.75,63.52 l 0.78,9.65 c 6.72,80.27 9.37,160 8.9,240.5 -0.08,12.66 -0.08,25.32 -0.11,37.97 0,12.42 -0.04,24.88 -0.08,37.31 l -0.04,11.52 c -0.04,28.59 -0.7,57.07 -2.42,85.66 -1.37,23.17 -2.62,46.68 0.04,69.81 0.5,4.02 1.13,8.08 1.83,12.11"
       style="fill:#72b9f8;fill-opacity:1;fill-rule:nonzero;stroke:none"
       transform="matrix(0.13333333,0,0,-0.13333333,0,1024)" />
    <path
       id="path5"
       d="m 4037.54,5570.98 c 52.19,1.48 52.19,1.48 73.71,-1.41 11.05,-1.64 21.99,-3.95 32.85,-6.52 1.95,-0.47 3.91,-0.94 5.9,-1.41 19.69,-4.53 38.67,-10.47 57.27,-18.36 19.96,-8.67 39.92,-17.93 58.24,-29.73 10.9,-7.18 21.17,-15.15 31.4,-23.28 l 8.48,-6.56 c 17.27,-13.51 33.56,-28.09 48.48,-44.22 15.62,-17.42 29.37,-36.13 41.75,-55.97 12.7,-20.71 23.87,-42.04 32.86,-64.61 9.22,-23.87 15.54,-48.64 21.17,-73.56 l 1.09,-4.92 c 4.53,-20.66 6.17,-41.95 7.19,-63.09 0.7,-18.04 0.04,-35.78 -2.23,-53.71 -3.32,-24.06 -9.02,-47.58 -16.4,-70.7 -7.62,-23.09 -16.18,-46.25 -27.7,-67.73 -9.22,-16.76 -19.33,-33.09 -31.13,-48.21 0.82,-3.98 1.64,-7.69 2.89,-11.52 2.07,-4.42 4.53,-8.59 7.07,-12.77 l 2.15,-3.68 c 2.38,-4.02 4.76,-8.04 7.19,-12.03 l 5.03,-8.51 c 13.29,-22.23 27.11,-44.07 41.1,-65.86 12.03,-18.75 23.71,-37.66 35.27,-56.72 13.6,-22.54 27.42,-44.92 41.41,-67.19 24.14,-38.48 47.65,-77.3 71.13,-116.17 l -2.85,-5.78 -3.67,-1.33 c -4.57,-1.64 -9.14,-3.36 -13.71,-5.12 -1.96,-0.74 -3.91,-1.44 -5.86,-2.15 -6.88,-2.46 -13.6,-5.15 -20,-8.71 -4.57,-2.89 -8.75,-6.17 -12.82,-9.76 -4.41,-4.18 -8.47,-8.71 -12.14,-13.56 -4.14,-5.66 -8.09,-11.4 -12,-17.26 -4.33,-6.45 -8.75,-12.82 -13.12,-19.22 l -2.7,-3.91 c -8.12,-11.87 -16.68,-23.36 -25.39,-34.8 -14.29,-18.79 -27.97,-37.97 -41.52,-57.31 l -2.15,-3.01 -2.07,-3 c -5.55,-7.89 -11.21,-15.71 -16.95,-23.48 -12.89,-17.58 -25.31,-35.51 -37.78,-53.36 -9.53,-13.71 -19.14,-27.3 -28.86,-40.86 -3.05,3.71 -5.94,7.58 -8.64,11.56 -3.75,6.53 -7.14,13.25 -10.54,20 l -3.01,5.9 c -2.15,4.14 -4.26,8.28 -6.41,12.46 -3.32,6.53 -6.64,13.05 -9.96,19.57 l -1.68,3.29 -3.36,6.48 -4.96,9.69 c -8.01,15.66 -16.13,31.29 -24.37,46.87 l -6.64,12.54 -1.64,3.13 c -7.58,14.29 -15.04,28.67 -22.54,43.04 -11.02,21.17 -22.11,42.35 -33.25,63.44 -7.3,13.87 -14.57,27.73 -21.75,41.64 -16.57,31.99 -33.28,63.83 -50.67,95.39 -11.09,20.28 -21.95,40.63 -32.54,61.13 l -1.75,3.33 c -1.06,2.03 -2.11,4.06 -3.17,6.13 -1.21,2.34 -2.54,4.69 -3.83,7.03 l -2.89,2.89 -3.36,-0.08 c -30.23,-0.7 -60.19,0.31 -90.19,4.69 -25.9,3.98 -51.76,10.08 -76.6,18.4 -26.49,9.18 -51.84,22.34 -76.33,35.86 -14.02,7.85 -27.34,16.83 -39.84,26.95 -12.47,10.39 -24.61,21.17 -36.41,32.34 l -3.05,2.78 c -13.44,12.38 -25.19,26.01 -36.29,40.54 -16.05,21.21 -30.19,43.79 -42.3,67.47 -10.35,20.54 -19.92,41.4 -26.64,63.43 -2.66,9.1 -4.92,18.28 -6.99,27.5 l -0.75,3.09 c -4.57,20.04 -7.42,40.43 -8.43,60.94 -1.25,28.16 -1.61,56.71 1.99,84.72 2.42,16.92 6.01,33.52 10.04,50.08 l 1.6,6.72 c 3.71,15.47 7.93,30.78 14.14,45.43 8.83,19.8 18.94,38.94 30.39,57.38 h 5.74 l 2.66,-4.53 c 19.41,-33.05 39.02,-65.94 58.94,-98.67 l 1.57,-2.58 3.16,-5.19 7.85,-12.93 1.6,-2.58 c 10.82,-17.81 21.57,-35.71 32.31,-53.64 14.88,-24.84 29.8,-49.64 44.8,-74.41 2.15,-3.55 4.3,-7.07 6.45,-10.62 3.01,-4.97 6.01,-9.93 9.02,-14.89 l 2.66,-4.37 c 6.13,-10.12 12.62,-19.85 19.18,-29.73 h 221.91 c 56.84,96.95 56.84,96.95 72.07,123.75 2.35,4.1 4.69,8.24 7.07,12.34 2.35,4.11 4.69,8.25 7.03,12.35 l 2.5,4.37 c 9.77,17.19 9.77,17.19 12.19,23.01 l 0.98,4.14 c 0.08,2.78 0.04,5.59 -0.08,8.36 l -0.9,4.77 c -3.09,7.58 -7.11,14.45 -11.37,21.44 -1.01,1.76 -2.03,3.56 -3.08,5.32 -3.75,6.48 -7.62,12.92 -11.49,19.37 l -4.22,7.03 -11.36,18.91 c -11.8,19.72 -23.56,39.45 -35.28,59.22 l -5.31,8.94 c -15.62,26.29 -31.17,52.62 -46.72,78.95 -16.48,27.89 -33.12,55.66 -49.84,83.43 z"
       style="fill:#1b8ef3;fill-opacity:1;fill-rule:nonzero;stroke:none"
       transform="matrix(0.13333333,0,0,-0.13333333,0,1024)" />
    <path
       id="path6"
       d="m 3662.89,5326.02 5.78,-8.64 -0.08,-3.4 c -1.95,-90.03 -1.95,-90.03 2.78,-120.86 2.3,-13.47 5.35,-26.75 8.83,-40 l 0.82,-3.2 c 6.44,-24.84 15.23,-48.87 25.7,-72.3 8.01,-17.58 17.54,-34.1 28.32,-50.16 14.53,-21.09 31.44,-40.08 48.91,-58.79 l 2.81,-3.05 c 12.38,-13.43 25.97,-25.15 40.51,-36.24 23.28,-17.62 48.12,-32.7 74.1,-46.06 21.48,-10.66 43.75,-19.18 66.72,-26.09 26.87,-7.85 54.41,-13.13 82.22,-16.25 20.71,-2.15 41.21,-2.43 61.99,-0.98 25.4,1.91 50.75,5.08 75.43,11.37 25.16,6.72 49.42,16.21 73.09,27.07 21.48,10.04 41.64,21.6 61.09,35.19 3.36,2.39 6.68,4.77 10.04,7.19 2.39,1.72 4.81,3.48 7.19,5.2 15.35,11.01 30.2,22.46 44.38,34.92 l 3.16,2.73 c 3.87,3.52 7.5,7.03 10.82,11.13 2.07,2.74 4.06,5.47 6.02,8.29 l 8.67,-2.89 -9.57,-16.37 -2.7,-4.65 c -5.43,-9.34 -10.97,-18.67 -16.56,-27.97 l 2.85,-4.57 116.56,-188.32 4.69,-7.58 11.68,-18.86 c 7.11,-11.53 14.26,-23.01 21.41,-34.54 18.94,-30.46 37.73,-61.05 56.05,-91.95 l -2.89,-11.52 -3.63,-1.29 c -4.57,-1.68 -9.14,-3.4 -13.71,-5.12 -1.96,-0.74 -3.91,-1.48 -5.86,-2.19 -6.92,-2.46 -13.6,-5.15 -20,-8.67 -4.61,-2.93 -8.75,-6.17 -12.81,-9.76 -4.42,-4.22 -8.48,-8.75 -12.19,-13.6 -4.14,-5.62 -8.09,-11.4 -11.96,-17.22 -4.33,-6.49 -8.75,-12.86 -13.12,-19.26 l -2.7,-3.91 c -8.12,-11.83 -16.68,-23.36 -25.39,-34.76 -14.29,-18.83 -28,-38.01 -41.56,-57.35 l -2.11,-3.01 -2.07,-2.96 c -5.58,-7.89 -11.21,-15.75 -16.95,-23.52 -10.16,-13.83 -20.04,-27.85 -29.88,-41.87 -1.8,-2.54 -3.56,-5.08 -5.36,-7.58 -10.97,-15.59 -21.48,-31.33 -31.4,-47.62 l -8.63,2.89 -1.92,3.67 c -54.1,105.67 -54.1,105.67 -76.6,148.09 -7.5,14.22 -14.92,28.47 -22.34,42.73 -11.06,21.21 -22.11,42.35 -33.29,63.44 -7.3,13.87 -14.53,27.73 -21.75,41.68 -16.53,31.95 -33.28,63.83 -50.63,95.39 -11.09,20.23 -21.95,40.63 -32.58,61.09 l -1.72,3.32 c -1.09,2.04 -2.14,4.11 -3.2,6.14 -1.21,2.38 -2.5,4.72 -3.83,7.07 l -2.89,2.85 -3.36,-0.08 c -30.23,-0.7 -60.19,0.31 -90.19,4.69 -25.86,3.98 -51.76,10.08 -76.6,18.4 -26.45,9.22 -51.84,22.38 -76.33,35.86 -14.03,7.85 -27.35,16.87 -39.85,26.95 -12.46,10.43 -24.6,21.21 -36.4,32.34 l -3.01,2.78 c -13.48,12.42 -25.23,26.01 -36.33,40.54 -16.01,21.21 -30.19,43.79 -42.3,67.46 -10.35,20.55 -19.92,41.41 -26.64,63.44 -2.66,9.1 -4.89,18.28 -7,27.5 l -0.7,3.05 c -4.37,18.55 -7.11,37.46 -8.24,56.48 -1.48,30.2 -2.11,60.9 1.21,90.98 3.83,30.23 11.49,59.8 20.47,88.91 1.48,4.72 3.01,9.49 4.53,14.18"
       style="fill:#074e8d;fill-opacity:1;fill-rule:nonzero;stroke:none"
       transform="matrix(0.13333333,0,0,-0.13333333,0,1024)" />
    <path
       id="path7"
       d="m 4725.04,4738.12 c 3.12,-0.35 6.13,-0.97 9.22,-1.67 3.55,-1.18 3.55,-1.18 7.03,-2.97 3.79,-2.27 7.5,-4.65 11.17,-7.07 l 4.14,-2.74 c 13.83,-9.06 27.46,-18.47 40.98,-28.01 5.78,-4.06 11.6,-8.08 17.38,-12.14 l 8.71,-6.1 c 10.82,-7.54 21.64,-15.04 32.54,-22.46 30.78,-21.09 61.45,-42.3 91.99,-63.79 l 3.21,-2.26 c 5.93,-4.18 11.83,-8.4 17.65,-12.7 l 4.03,-2.81 c 3.43,-2.58 6.6,-5.16 9.68,-8.17 2.62,-3.43 5,-7.07 7.07,-10.89 1.57,-3.52 1.57,-3.52 2.5,-6.57 0.55,-2.77 0.55,-2.77 1.06,-7.93 l 0.58,-5.27 c 0.08,-1.29 0.2,-2.58 0.32,-3.91 -1.96,-5.82 -4.18,-11.44 -6.84,-16.99 -4.92,-8.71 -11.56,-16.4 -17.89,-24.18 l -4.1,-4.96 c -5.51,-2.11 -11.06,-3.91 -16.8,-5.23 -3.36,-0.51 -3.36,-0.51 -6.95,-0.55 -2.58,0.12 -5.16,0.23 -7.7,0.35 -6.87,0.35 -13.59,0.51 -20.43,-0.31 -3.98,-1.06 -7.65,-2.34 -11.44,-3.99 -4.92,-2.38 -9.65,-5.07 -14.18,-8.08 -4.06,-2.93 -7.89,-6.17 -11.49,-9.69 -3.47,-3.79 -6.64,-7.77 -9.53,-11.95 -7.22,-11.64 -12.69,-24.26 -18.04,-36.84 -1.88,-5.23 -3.48,-10.43 -4.46,-15.9 -0.35,-4.25 -0.35,-8.47 -0.31,-12.73 -0.16,-14.96 -0.31,-30.08 -2.58,-44.92 -1.21,-4.65 -1.21,-4.65 -2.73,-8.36 -2.42,-4.61 -5.35,-8.71 -8.48,-12.85 -0.94,-1.14 -1.87,-2.31 -2.85,-3.52 -3.95,-4.96 -7.62,-10.12 -11.29,-15.31 -6.33,-8.87 -12.73,-17.74 -19.18,-26.53 -10.15,-13.98 -20.15,-28.04 -30.04,-42.22 l -2.5,-3.6 c -18.01,-25.74 -35.66,-51.71 -53.32,-77.69 -6.05,-8.87 -12.11,-17.73 -18.16,-26.6 l -2.5,-3.63 -4.89,-7.11 c -14.45,-21.1 -28.82,-42.27 -42.92,-63.64 -6.65,-2.38 -13.21,-4.41 -20.16,-5.78 -26.68,-3.75 -53.83,-3.24 -80.7,-2.85 0.82,3.95 1.68,7.7 2.89,11.52 2.65,4.69 2.65,4.69 5.89,9.38 l 1.8,2.62 c 1.99,2.85 3.99,5.7 6.02,8.51 l 4.26,6.13 c 12.14,17.39 24.57,34.61 37.07,51.76 11.28,15.63 22.5,31.33 33.55,47.11 10.35,14.69 20.78,29.26 31.37,43.79 15.27,21.06 30.15,42.38 44.8,63.91 12.39,18.24 25.04,36.29 37.85,54.22 l 2.11,2.96 3.91,5.47 c 2.26,3.21 4.45,6.45 6.44,9.85 l 1.06,2.65 c 0.19,3.95 0.27,7.89 0.19,11.88 l -0.03,3.24 c -0.04,2.66 -0.08,5.27 -0.16,7.93 l -8.63,8.63 -14.42,2.89 -14.41,-5.78 c -12.19,-14.96 -23.52,-30.51 -34.42,-46.44 l -1.95,-2.89 -8.4,-12.35 c -9.92,-14.49 -19.96,-28.9 -29.96,-43.32 l -3.01,-4.29 c -16.13,-23.17 -32.34,-46.26 -48.63,-69.3 -4.92,-6.92 -9.8,-13.83 -14.69,-20.78 -23.39,-33.25 -23.39,-33.25 -35.27,-49.61 l -2.34,-3.21 c -1.57,-2.14 -3.13,-4.29 -4.69,-6.44 l -2.34,-3.24 -2.31,-3.21 c -18.55,-25.54 -36.33,-51.68 -54.06,-77.85 -11.02,-0.35 -21.99,-0.62 -32.93,0.82 -6.88,1.02 -13.71,2.27 -20.55,3.52 l -7.15,1.25 c -5.74,1.01 -11.44,2.03 -17.18,3.08 l -8.64,8.64 c 31.96,46.91 64.42,93.47 97.19,139.84 24.1,34.14 48.16,68.28 71.76,102.77 19.8,28.87 39.96,57.54 60.47,85.9 l 2.61,3.64 c 4.22,5.78 8.4,11.6 12.62,17.38 l 4.57,6.25 2.11,2.89 c 2.5,3.44 4.88,6.87 7.03,10.55 l 1.02,2.53 c 0.27,4.34 0.27,4.34 0.15,8.99 l -0.15,8.28 c -3.83,4.77 -7.62,9.53 -11.53,14.41 -3.2,0.08 -6.36,0.16 -9.57,0.2 l -5.35,0.08 -5.27,-0.28 c -5,-1.44 -5,-1.44 -8.63,-2.89 l -2.43,-5.04 c -3.16,-6.36 -6.99,-12.07 -11.13,-17.89 l -2.3,-3.28 c -1.64,-2.34 -3.28,-4.65 -4.96,-6.99 -3.6,-5.12 -7.19,-10.23 -10.79,-15.35 l -5.74,-8.13 c -9.57,-13.63 -19.1,-27.26 -28.59,-40.93 l -8.67,-12.46 c -8.87,-12.78 -17.74,-25.51 -26.6,-38.25 -30.47,-43.9 -61.06,-87.73 -92.43,-130.97 -16.91,-23.36 -33.43,-46.96 -49.92,-70.63 -9.1,-13.05 -18.2,-26.09 -27.34,-39.1 -5.78,-0.27 -11.49,-0.35 -17.31,0 -4.76,1.02 -9.14,2.62 -13.63,4.41 l -3.63,1.37 c -3.75,1.41 -7.46,2.85 -11.17,4.3 l -7.7,2.93 c -6.21,2.34 -12.42,4.72 -18.59,7.15 -1.92,2.85 -3.83,5.7 -5.78,8.67 10.62,16.17 21.56,32.07 32.96,47.73 4.11,5.67 8.21,11.29 12.31,16.96 l 2.46,3.39 c 7.77,10.75 15.47,21.49 23.16,32.31 7.11,10 14.26,19.92 21.49,29.84 16.05,22.11 31.87,44.34 47.22,66.99 14.3,21.1 29.15,41.68 44.38,62.15 10.98,14.81 21.76,29.73 32.34,44.81 13.48,19.26 27.11,38.36 40.94,57.34 7.38,10.12 14.65,20.28 21.6,30.7 13.44,20.04 13.44,20.04 20.86,28.52 2.89,2.58 2.89,2.58 5.67,4.53 2.69,1.53 5.35,2.78 8.24,3.95 3.01,1.09 6.05,2.07 9.14,3.04 11.8,4.14 23.55,8.44 34.57,14.42 6.87,4.57 13.01,9.76 19.06,15.39 4.57,4.53 8.71,9.14 12.58,14.3 5.47,7.96 10.27,16.32 14.49,25.03 l 1.68,3.36 c 1.68,3.6 3.01,7.27 4.06,11.06 0.79,6.64 0.82,13.16 0.75,19.8 -0.04,1.8 -0.04,3.6 -0.04,5.47 -0.24,12.58 -0.24,12.58 -1.33,18.48 -1.13,4.1 -2.58,8.01 -4.06,11.99 l -1.06,4.77 c 0,8.75 1.41,17.38 2.85,25.93 3.13,4.18 6.25,8.32 9.38,12.46 l 2.62,3.52 c 2.65,3.44 5.31,6.76 8.2,9.96 3.63,3.2 7.38,6.1 11.52,8.67 l 5.04,2.15 c 5.59,0.94 11.1,0.94 16.76,0.7"
       style="fill:#074e8d;fill-opacity:1;fill-rule:nonzero;stroke:none"
       transform="matrix(0.13333333,0,0,-0.13333333,0,1024)" />
    <path
       id="path8"
       d="m 5357.38,5184.8 11.57,-2.85 c 15.15,-26.99 26.36,-55.19 36.64,-84.37 18.98,-54.42 32.34,-110.2 41.75,-167.03 2.23,-14.14 3.87,-28.32 5.16,-42.54 l 0.51,-5.16 c 4.49,-49.02 4.53,-99.33 0.54,-148.4 -4.49,-51.79 -13.51,-103.08 -26.71,-153.32 -11.64,-43.36 -25.67,-86.05 -44.57,-126.83 -3.4,-7.23 -6.92,-14.46 -10.47,-21.64 l -1.96,-3.95 c -25.31,-51.33 -53.9,-99.73 -87.73,-145.9 -13.99,-18.94 -28.67,-36.72 -45,-53.75 -3.59,-3.86 -7.11,-7.81 -10.51,-11.83 -11.83,-13.68 -24.26,-26.64 -37.07,-39.42 l -3.24,-3.24 c -15.82,-15.78 -31.91,-30.66 -49.65,-44.26 -4.41,-3.43 -8.79,-6.95 -13.09,-10.47 -38.86,-31.56 -80.7,-58.71 -124.41,-83.08 -44.76,-24.77 -91.64,-45.59 -140.04,-62.19 -53.08,-17.93 -107.62,-30.16 -162.97,-38.67 -12.97,-1.95 -25.97,-3.52 -39.02,-4.65 l -4.02,-0.35 c -28.48,-2.5 -56.76,-3.13 -85.32,-3.09 h -3.32 c -37.57,0.04 -74.65,1.17 -111.95,6.33 l -4.02,0.55 c -55.24,7.61 -109.96,19.22 -163.17,36.09 -49.88,16.13 -98.16,37.34 -144.57,61.68 -22.73,12.07 -44.49,25.43 -65.74,40 l -2.93,1.99 c -35.19,24.07 -68.32,49.57 -99.84,78.36 -5.12,4.65 -10.35,9.26 -15.63,13.75 -20.7,17.78 -39.61,37.23 -57.22,58.01 -2.86,3.24 -5.67,6.45 -8.56,9.65 -28.75,31.99 -53.75,66.64 -76.52,103.08 -8.83,14.26 -17.35,28.68 -25.67,43.25 -1.68,2.89 -3.36,5.82 -5.08,8.75 -21.48,37.07 -37.61,76.91 -52.42,117.03 -17.5,48.16 -31.64,96.76 -40.66,147.26 -4.3,25 -7.38,50.16 -9.92,75.43 -0.32,3.01 -0.63,6.02 -0.98,9.03 -3.32,30.74 -4.06,62.5 -1.99,93.4 1.33,16.95 3.32,33.9 5.51,50.78 l 5.74,2.89 c 20.47,-17.19 20.47,-17.19 26.68,-24.34 1.76,-2.3 3.47,-4.65 5.19,-6.99 2.74,-3.24 2.74,-3.24 6.49,-6.49 2.54,-1.95 5.04,-3.86 7.61,-5.7 l 3.05,-2.58 1.6,-2.54 1.25,-3.24 c 0.39,-3.86 0.39,-3.86 0.43,-8.32 l 0.04,-5.15 0.04,-5.59 c 0.08,-4.02 0.12,-8.01 0.2,-12.03 l 0.04,-3.2 c 0.74,-47.9 3.82,-94.97 12.69,-142.15 9.45,-48.4 22.5,-96.72 40,-142.89 7.31,-18.79 15.66,-37.11 24.38,-55.32 l 1.44,-3 c 20.39,-42.74 43.28,-83.64 70.74,-122.27 17.03,-23.59 35.43,-45.94 54.61,-67.77 l 2.07,-2.35 c 27.82,-31.64 57.78,-61.44 90.67,-87.81 8.32,-6.64 16.87,-13.01 25.43,-19.37 l 2.77,-2.07 c 34.8,-25.94 71.02,-49.07 109.73,-68.68 20.9,-10.47 42.03,-20.43 63.28,-30.11 l 3.24,-1.49 c 37.54,-17.19 77.93,-28.44 117.81,-38.87 11.72,-2.92 23.48,-5.58 35.28,-8.08 l 3.75,-0.82 c 10,-2.15 20.04,-3.87 30.11,-5.51 l 3.32,-0.51 c 42.66,-6.79 84.61,-9.68 127.82,-9.41 4.61,0.04 9.18,0.04 13.79,0.04 44.06,0.15 87.22,1.87 130.74,9.37 4.65,0.86 9.26,1.72 13.9,2.58 4.22,0.78 8.48,1.52 12.74,2.23 42.69,7.11 83.67,20.35 124.37,34.72 42.89,15.28 83.67,34.42 123.36,56.72 41.96,23.87 81.37,52.19 118.56,82.93 31.91,26.49 63.08,54.18 90.15,85.71 2.62,3.12 5.24,6.25 7.82,9.41 l 3.63,4.37 c 30.58,37.04 59.1,75.32 83.01,117.04 24.96,44.02 46.99,89.49 64.1,137.18 16.05,45.71 28.08,92.74 36.05,140.55 1.1,7.11 2.11,14.26 3.01,21.41 0.39,3.08 0.82,6.17 1.29,9.25 6.6,46.41 6.64,93.72 5.23,140.47 -1.01,29.14 -4.53,58.01 -9.02,86.76 l -0.7,4.69 c -6.96,44.84 -17.7,89.02 -32.11,132.03 -9.3,27.11 -20.28,53.98 -33.44,79.41 l 2.85,11.53 z"
       style="fill:#72b9f8;fill-opacity:1;fill-rule:nonzero;stroke:none"
       transform="matrix(0.13333333,0,0,-0.13333333,0,1024)" />
    <path
       id="path9"
       d="m 5380.47,5470.12 c 4.84,-0.78 9.61,-1.68 14.41,-2.89 4.38,-2.11 4.38,-2.11 8.05,-4.61 l 4.18,-2.82 4.34,-3 4.49,-3.09 c 13.59,-9.37 26.6,-19.37 39.45,-29.69 -5.86,-21.79 -13.94,-41.99 -23.24,-62.5 -2.85,-6.32 -5.67,-12.65 -8.52,-18.98 l -2.15,-4.84 c -4.96,-11.1 -9.76,-22.27 -14.41,-33.48 l -5.7,-13.48 c -1.21,-2.85 -2.39,-5.7 -3.56,-8.59 -3.51,-8.6 -7.03,-17.19 -11.6,-25.27 -3.12,-4.38 -3.12,-4.38 -6.41,-7.86 -2.61,-2.26 -5.27,-4.45 -8,-6.56 l -2.66,-2.07 c -6.44,-4.92 -12.93,-9.77 -19.53,-14.45 -6.09,-4.42 -12.19,-8.87 -18.28,-13.32 l -3.67,-2.7 c -10.24,-7.5 -20.43,-15.08 -30.43,-22.81 -1.64,-1.25 -3.25,-2.5 -4.89,-3.71 -7.38,-5.59 -14.22,-11.37 -20.58,-18.09 -12.7,-13.94 -23.48,-29.1 -34.14,-44.61 l -5.24,-7.54 c -3.59,-5.23 -7.18,-10.43 -10.78,-15.62 -7.77,-11.21 -15.58,-22.42 -23.4,-33.56 l -7.65,-10.89 c -9.81,-14.03 -19.65,-28.05 -29.57,-42.04 -16.21,-22.93 -32.31,-46.01 -48.32,-69.1 -13.48,-19.37 -27,-38.71 -40.51,-58.04 l -12.38,-17.66 c -7.54,-10.78 -15.08,-21.52 -22.62,-32.27 l -12.58,-18.04 -5.08,-7.19 -12.58,-18.01 -5.03,-7.22 -12.58,-17.93 c -7.82,-11.14 -15.59,-22.31 -23.4,-33.44 l -10.94,-15.63 -5.16,-7.38 c -10.07,-14.41 -20.19,-28.75 -30.42,-43.05 -4.89,0.67 -9.65,1.57 -14.42,2.89 -4.34,2.04 -8.2,4.54 -12.11,7.23 l -3.24,2.11 c -3.36,2.23 -6.72,4.45 -10.04,6.68 -2.3,1.52 -4.61,3.05 -6.87,4.57 -5.59,3.67 -11.18,7.38 -16.72,11.09 0.54,5.9 1.44,11.57 2.89,17.31 1.79,3.83 3.9,7.11 6.33,10.58 l 2.61,3.6 2.74,3.9 c 3,4.18 5.97,8.36 9.02,12.54 l 6.29,8.87 c 4.26,6.02 8.55,12.03 12.85,18.05 5.74,8.04 11.45,16.09 17.07,24.18 l 2.54,3.67 5.04,7.23 c 12.46,17.89 25.04,35.66 37.62,53.47 l 4.29,6.1 c 10.16,14.33 20.2,28.75 30.12,43.24 27.85,40.7 56.33,80.98 84.77,121.25 7.18,10.12 14.33,20.27 21.48,30.39 l 6.48,9.22 c 6.49,9.14 12.93,18.28 19.38,27.46 l 8.55,12.15 4.3,6.09 c 8.24,11.8 16.64,23.48 25.24,35.04 l 7.46,10.16 c 2.34,3.12 4.65,6.21 6.99,9.33 8.12,10.86 15.39,22.15 21.64,34.18 12.38,24.73 19.69,51.72 27.85,78.09 2.77,9.06 5.63,18.12 8.48,27.19 1.13,3.59 2.22,7.14 3.32,10.74 1.95,6.29 3.94,12.58 6.56,18.63 2.58,4.88 5.63,9.41 8.83,13.91 2.42,3.04 5.04,5.89 7.85,8.55 1.76,1.49 3.52,2.93 5.31,4.38 2.03,1.72 4.1,3.43 6.14,5.19 l 3.2,2.7 c 5.51,4.65 10.86,9.45 16.21,14.25 l 3.52,3.17 c 14.02,12.65 27.77,25.66 41.48,38.63 13.09,12.35 26.45,24.3 40.04,36.02"
       style="fill:#074e8d;fill-opacity:1;fill-rule:nonzero;stroke:none"
       transform="matrix(0.13333333,0,0,-0.13333333,0,1024)" />
    <path
       id="path10"
       d="m 4568.87,5689.69 h 3.71 c 38.04,-0.08 75.7,-0.35 113.36,-6.33 l 4.88,-0.74 c 57.03,-9.07 113.28,-21.02 168.05,-39.61 51.09,-17.74 100.54,-39.18 147.81,-65.47 45.74,-25.66 88.94,-55 129.57,-88.2 35.47,-29.18 67.85,-61.45 100.12,-94.14 l -5.78,-2.9 -0.71,-4.84 c -0.78,-3.24 -0.78,-3.24 -2.15,-6.68 -1.75,-2.15 -3.55,-4.26 -5.43,-6.29 -3.08,-3.59 -3.08,-3.59 -6.09,-8.12 -3.67,-8.36 -6.13,-17.19 -8.67,-25.94 -3.79,0.98 -7.62,1.91 -11.52,2.89 l -2.62,2.89 c -29.65,32.58 -59.3,64.73 -94.14,91.88 -4.22,3.32 -8.4,6.64 -12.58,10 -34.84,27.61 -71.99,53 -111.06,74.21 -5.27,2.82 -10.58,5.59 -15.89,8.32 l -3.83,2 c -43.79,22.5 -88.4,42.46 -135.47,57.07 -44.81,13.51 -90.86,24.65 -137.38,30.27 l -3.52,0.43 c -53.36,6.6 -107.46,7.54 -161.13,4.92 -18.2,-1.01 -36.29,-2.93 -54.34,-5.35 l -4.1,-0.51 c -45.43,-5.97 -89.37,-16.17 -133.08,-29.88 -12.62,-4.06 -25.12,-8.48 -37.5,-13.2 -12.74,-4.81 -12.74,-4.81 -18.4,-5.98 -5.75,-0.98 -11.53,-1.76 -17.31,-2.3 l -2.77,1.4 c -19.02,9.65 -38.13,18.99 -57.74,27.42 l 2.89,11.53 c 49.26,21.56 98.87,41.36 151.14,54.41 43.9,10.67 88.47,18.36 133.4,23.01 3.55,0.39 7.11,0.82 10.7,1.21 25.78,2.89 51.68,2.66 77.58,2.62"
       style="fill:#72b9f8;fill-opacity:1;fill-rule:nonzero;stroke:none"
       transform="matrix(0.13333333,0,0,-0.13333333,0,1024)" />
    <path
       id="path11"
       d="m 4304.06,4761.84 c 9.57,0.7 19.18,0.58 28.75,-0.12 4.46,-0.51 4.46,-0.51 8.09,-1.33 3.08,-0.94 6.05,-2.11 8.94,-3.51 3.75,-2.11 7.11,-4.5 10.47,-7.19 4.46,-3.75 8.64,-7.85 12.39,-12.31 9.02,-11.48 15.74,-24.41 22.69,-37.18 9.61,-17.62 20.16,-34.54 31.02,-51.37 l 2.65,-4.14 c 3.44,-5.39 6.92,-10.82 10.39,-16.21 7.54,-11.72 14.93,-23.48 22.27,-35.32 14.84,-23.94 30.19,-47.54 45.55,-71.17 h 5.78 c -0.71,-4.65 -0.71,-4.65 -1.53,-7.89 -1.36,-3.63 -1.36,-3.63 -3.67,-7.46 -3.16,-4.61 -6.44,-9.14 -9.76,-13.63 -1.25,-1.76 -2.54,-3.48 -3.79,-5.24 -3.52,-4.84 -7.07,-9.65 -10.63,-14.45 -2.42,-3.32 -4.84,-6.6 -7.26,-9.92 -6.92,-9.42 -13.87,-18.83 -20.82,-28.24 -7.43,-10.04 -14.85,-20.08 -22.11,-30.2 l -3.25,-4.53 c -1.87,-2.66 -3.78,-5.35 -5.62,-8.01 l -2.5,-3.44 -2.03,-2.93 -2.15,-2.38 c -3.13,-1.76 -3.13,-1.76 -5.74,-2.85 v 5.74 l -11.53,5.78 c -57.73,108.56 -57.73,108.56 -85.93,162.46 l -2.11,4.07 c -3.64,6.91 -7.23,13.86 -10.82,20.82 -6.96,13.43 -14.03,26.83 -21.41,40.08 -3.51,6.36 -6.99,12.77 -10.47,19.18 -1.68,3.04 -3.36,6.05 -5.08,9.06 -4.72,8.24 -9.22,16.48 -12.73,25.31 -1.33,4.3 -1.33,4.3 -2.07,8.95 -0.66,7.46 -0.66,14.88 -0.24,22.34 0.4,3.87 0.94,7.42 1.92,11.17 1.01,3.01 2.07,5.94 3.4,8.87 1.52,2.73 3.2,5.43 5.04,7.97 4.92,6.01 10.54,11.17 16.32,16.33 2.86,2.34 5.82,4.49 8.91,6.48 3.36,1.84 6.84,3.44 10.47,4.73 3.91,1.05 3.91,1.05 8.2,1.68"
       style="fill:#1b8ef3;fill-opacity:1;fill-rule:nonzero;stroke:none"
       transform="matrix(0.13333333,0,0,-0.13333333,0,1024)" />
    <path
       id="path12"
       d="m 4017.38,5501.84 11.53,-5.79 c 2.85,-4.41 5.66,-8.86 8.43,-13.32 l 2.46,-3.75 c 2.39,-3.86 4.54,-7.61 6.37,-11.75 1.45,-5.75 2.31,-11.41 2.89,-17.27 l -3.28,-2.81 c -83.05,-70.94 -83.05,-70.94 -117.73,-112.46 -19.61,-23.91 -37.78,-48.95 -55.32,-74.42 l -2.03,-2.93 c -11.52,-16.72 -11.52,-16.72 -15.58,-24.84 l -2,-4.45 -8.67,2.89 -31.68,51.87 5.75,2.85 0.82,2.5 c 1.44,4.07 3.12,8.05 4.96,11.92 3.94,6.48 8.32,12.62 12.77,18.75 l 1.91,2.62 c 14.22,19.72 29.73,38.24 45.82,56.44 l 3.79,4.3 c 28.48,32.11 58.29,64.18 91.88,90.97 3.63,2.86 7.3,5.67 10.98,8.48 2.57,2.03 5.11,4.02 7.69,6.06 6.06,4.72 12.15,9.45 18.24,14.14"
       style="fill:#72b9f8;fill-opacity:1;fill-rule:nonzero;stroke:none"
       transform="matrix(0.13333333,0,0,-0.13333333,0,1024)" />
    <path
       id="path13"
       d="m 4795.47,4190.59 h 5.74 l 1.56,-2.82 c 17.54,-31.52 36.64,-61.91 56.1,-92.26 -2.82,-3.17 -5.43,-5.98 -8.67,-8.63 -2.93,-1.57 -5.82,-2.7 -8.95,-3.79 l -3.4,-1.1 -3.63,-1.21 c -3.91,-1.33 -7.81,-2.58 -11.76,-3.83 -1.33,-0.43 -2.69,-0.9 -4.06,-1.33 -30.67,-10 -61.49,-18.32 -93.44,-22.89 -9.14,-1.25 -18.32,-2.34 -27.5,-3.32 2.54,3.83 5.04,7.66 7.58,11.53 l 2.07,3.16 c 5,7.58 10.35,14.85 15.86,22.11 8.32,10.98 15.98,22.27 23.51,33.79 15.75,23.98 32.11,47.42 48.99,70.59"
       style="fill:#074e8d;fill-opacity:1;fill-rule:nonzero;stroke:none"
       transform="matrix(0.13333333,0,0,-0.13333333,0,1024)" />
    <path
       id="path14"
       d="m 2777.27,2005.23 h 129.8 v 534.57 h -129.8 l -30.55,-99.29 h 30.55 z m 309.33,0 h 112.97 v 391.06 l 85.47,-391.06 h 123.05 l 84.68,395.51 v -395.51 h 120.78 V 2539.8 H 3423.36 L 3350,2237.34 3275.23,2539.8 H 3086.6 l -30.66,-99.29 h 30.66 z m 706.33,0 h 129.8 v 152 l 25.94,0.74 c 164.26,0 245.98,63.4 245.98,191.64 0,126.8 -81.72,190.19 -245.98,190.19 h -155.74 l -30.55,-99.29 h 30.55 z m 129.8,252 v 183.28 h 25.94 c 72.62,0 108.52,-29.81 108.52,-90.9 0,-61.84 -35.9,-92.38 -108.52,-92.38 z m 423.79,-252 h 358.17 v 99.26 h -228.36 v 118.44 h 159.65 v 99.3 h -159.65 v 118.28 h 197.81 l 30.55,99.29 h -358.17 l -30.54,-99.29 h 30.54 z m 509.46,0 h 129.84 v 197.82 h 14.41 l 119.15,-197.82 h 137.46 l -127.5,211.53 c 77.07,29.1 120.58,68.01 120.58,157.34 0,103.01 -87.73,165.7 -245.82,165.7 h -148.12 l -30.51,-99.29 h 30.51 z m 129.84,282.54 v 152.74 h 18.28 c 72.5,0 108.36,-25.2 108.36,-75.63 0,-51.87 -35.86,-77.11 -108.36,-77.11 z m 423.05,-282.54 h 129.8 v 534.57 h -129.8 l -30.55,-99.29 h 30.55 z m 512.34,-7.65 c 118.44,0 205.47,60.39 205.47,203.16 v 339.06 h -129.8 v -335.31 c 0,-71.01 -32.15,-98.4 -76.37,-98.4 -45.82,0 -76.37,28.95 -76.37,98.4 v 335.31 h -129.8 l -30.55,-99.29 h 30.55 v -239.77 c 0,-138.16 82.38,-203.16 206.87,-203.16 z m 376.52,7.65 h 112.97 v 391.06 l 85.59,-391.06 h 122.89 l 84.88,395.51 v -395.51 h 120.59 v 534.57 h -190.2 l -73.32,-302.46 -74.8,302.46 h -188.6 l -30.54,-99.29 h 30.54 z"
       style="fill:#074e8d;fill-opacity:1;fill-rule:nonzero;stroke:none"
       transform="matrix(0.13333333,0,0,-0.13333333,0,1024)" />
    <path
       id="path15"
       d="m 3422.19,1547.42 h 47.54 l -95.12,302.62 h -78.67 l -8.21,-38.91 h 20.75 l -82.97,-263.71 h 47.54 l 22.89,73.52 h 103.32 z m -113.71,112.42 39.33,124.93 38.91,-124.93 z m 444.37,190.2 h -123.2 l -4.3,-38.91 h 17.27 v -263.71 h 47.54 v 123.2 h 62.69 c 54.45,0 89.06,32.43 89.06,89.07 0,54.02 -33.75,90.35 -89.06,90.35 z m -62.69,-140.51 v 101.6 h 53.63 c 31.09,0 50.55,-18.59 50.55,-51.01 0,-30.28 -19.03,-50.59 -50.55,-50.59 z m 443.51,140.51 h -123.2 l -4.3,-38.91 h 17.27 v -263.71 h 47.54 v 123.2 h 62.69 c 54.45,0 89.06,32.43 89.06,89.07 0,54.02 -33.75,90.35 -89.06,90.35 z m -62.69,-140.51 v 101.6 h 53.63 c 31.09,0 50.55,-18.59 50.55,-51.01 0,-30.28 -19.03,-50.59 -50.55,-50.59 z m 333.28,-162.11 h 171.6 l 4.34,38.91 h -128.4 v 263.71 h -60.51 l -4.3,-38.91 h 17.27 z m 357.5,0 h 47.54 v 302.62 h -60.51 l -4.34,-38.91 h 17.31 z m 399.84,0 h 47.54 l -95.12,302.62 h -78.67 l -8.2,-38.91 h 20.74 l -82.97,-263.71 h 47.54 l 22.89,73.52 h 103.32 z m -113.71,112.42 39.34,124.93 38.9,-124.93 z m 334.14,-112.42 h 47.54 v 226.1 l 114.57,-226.1 h 60.51 v 302.62 h -47.54 v -226.09 l -114.57,226.09 h -73.48 l -4.29,-38.91 h 17.26 z m 626.37,41.53 -22.93,35 c -21.17,-25.08 -48.83,-35.86 -82.11,-35.86 -48.87,0 -86.91,37.14 -86.91,111.09 0,73.05 38.04,110.2 86.91,110.2 27.23,0 50.55,-8.21 68.28,-25.04 l 23.79,37.14 c -23.79,19.89 -54.92,31.14 -92.07,31.14 -78.67,0 -134.45,-61.8 -134.45,-153.44 0,-92.54 55.78,-154.34 134.45,-154.34 44.06,0 80.39,16.02 105.04,44.11 z m 172.89,-41.53 h 180.23 l 4.34,38.91 h -137.03 v 92.97 h 105.9 l 4.33,38.86 h -110.23 v 92.97 h 128.4 l 4.29,38.91 h -193.2 l -4.34,-38.91 h 17.31 z"
       style="fill:#074e8d;fill-opacity:1;fill-rule:nonzero;stroke:none"
       transform="matrix(0.13333333,0,0,-0.13333333,0,1024)" />
  </g>
</svg>
